<svg width="16" height="16" viewBox="0 0 16 16" fill="none" xmlns="http://www.w3.org/2000/svg">
<path d="M16 5.65353V13.3335C16 13.5103 15.9297 13.6799 15.8047 13.8049C15.6797 13.93 15.5101 14.0002 15.3333 14.0002C15.1565 14.0002 14.9869 13.93 14.8619 13.8049C14.7369 13.6799 14.6666 13.5103 14.6666 13.3335V7.83487L9.73331 10.1922C9.21314 10.4992 8.61931 10.6592 8.01531 10.6549C7.38187 10.6559 6.75995 10.4856 6.21531 10.1622L1.2953 7.8202C0.908559 7.61223 0.584511 7.30456 0.356785 6.92911C0.12906 6.55365 0.00595271 6.1241 0.000238895 5.68502C-0.00547492 5.24594 0.106412 4.81333 0.324291 4.43208C0.54217 4.05083 0.858102 3.73483 1.2393 3.51687C1.2573 3.5062 1.27664 3.4962 1.2953 3.48687L6.26664 1.11487C6.80335 0.806643 7.41248 0.646953 8.03137 0.652226C8.65027 0.657499 9.25659 0.827543 9.78797 1.14487L14.7046 3.48687C15.0926 3.70152 15.4168 4.01506 15.6443 4.39562C15.8718 4.77618 15.9945 5.21019 16 5.65353ZM8.01464 11.9869C7.16169 11.9888 6.32339 11.7652 5.58464 11.3389L2.66664 9.9462V11.7462C2.66703 12.4579 2.89488 13.1508 3.31692 13.7238C3.73897 14.2969 4.33311 14.72 5.01264 14.9315C5.98353 15.2103 6.98993 15.3457 7.99997 15.3335C9.01014 15.3449 10.0166 15.2085 10.9873 14.9289C11.6668 14.7174 12.261 14.2942 12.683 13.7212C13.1051 13.1481 13.3329 12.4552 13.3333 11.7435V9.94954L10.3606 11.3695C9.64707 11.7795 8.83758 11.993 8.01464 11.9882V11.9869Z" fill="#374957"/>
</svg>
