<svg width="20" height="20" viewBox="0 0 20 20" fill="none" xmlns="http://www.w3.org/2000/svg">
<g clip-path="url(#clip0_79_106)">
<path d="M18.9776 6.43444C18.5869 5.98411 18.1039 5.62301 17.5614 5.37557C17.019 5.12813 16.4297 5.00015 15.8335 5.00027H12.5093L12.7893 3.29944C12.8884 2.70049 12.7688 2.08589 12.4525 1.56772C12.1362 1.04956 11.6441 0.662368 11.0661 0.476767C10.4881 0.291166 9.86263 0.319525 9.30377 0.55667C8.74492 0.793815 8.28993 1.22395 8.02179 1.76861L6.66679 4.51444V17.5003H15.2501C16.253 17.4962 17.2211 17.1322 17.9783 16.4746C18.7355 15.8169 19.2314 14.9094 19.376 13.9169L19.9635 9.75027C20.0465 9.15921 20.0015 8.55719 19.8314 7.98507C19.6613 7.41295 19.3701 6.88411 18.9776 6.43444Z" fill="#0096C7"/>
<path d="M0 9.16667V13.3333C0.00132321 14.438 0.440735 15.497 1.22185 16.2782C2.00296 17.0593 3.062 17.4987 4.16667 17.5H5V5H4.16667C3.062 5.00132 2.00296 5.44073 1.22185 6.22185C0.440735 7.00296 0.00132321 8.062 0 9.16667H0Z" fill="#0096C7"/>
</g>
<defs>
<clipPath id="clip0_79_106">
<rect width="20" height="20" fill="white"/>
</clipPath>
</defs>
</svg>
