<svg width="20" height="20" viewBox="0 0 20 20" fill="none" xmlns="http://www.w3.org/2000/svg">
<g clip-path="url(#clip0_92_80)">
<path d="M16.6233 19.1674H3.3766C2.80073 19.1707 2.23368 19.0259 1.72991 18.7469C1.22614 18.4679 0.802588 18.064 0.499938 17.574C0.20103 17.0959 0.0300883 16.5488 0.00352853 15.9855C-0.0230312 15.4222 0.0956832 14.8616 0.348271 14.3574L6.98327 2.67738C7.26879 2.12053 7.70288 1.65357 8.23745 1.32824C8.77203 1.0029 9.38622 0.831885 10.012 0.834128C10.6378 0.836371 11.2507 1.01179 11.783 1.34095C12.3152 1.67011 12.7459 2.14016 13.0274 2.69905L19.6291 14.3166C19.8908 14.8245 20.0164 15.3915 19.9936 15.9624C19.9708 16.5333 19.8004 17.0886 19.4991 17.574C19.1965 18.0639 18.7731 18.4677 18.2695 18.7467C17.7659 19.0257 17.199 19.1706 16.6233 19.1674Z" fill="#0096C7"/>
</g>
<defs>
<clipPath id="clip0_92_80">
<rect width="20" height="20" fill="white"/>
</clipPath>
</defs>
</svg>
